REM DIRINDEX 1\8,1\2\11,1\3\12,1\3\14,1\5\15,1\5\16,1\6\17,1\6\18,1\4\19,1\4\20,1\4\21,1\4\22,1\7\23,1\7\24,1\7\25,1\2\9\26,1\2\9\27,1\2\10\28,1\2\10\29,1\2\10\30,1\2\10\31,1\2\10\32,1\3\13\33,1\3\13\34,1\3\13\35
REM DIRNAME folder01,folder02,folder03,folder04,folder05,folder06,folder07,folder08,folder09,folder10,folder11,folder12,folder13,folder14,folder15,folder16,folder17,folder18,folder19,folder20,folder21,folder22,folder23,folder24,folder25,folder26,folder27,folder28,folder29,folder30,folder31,folder32,folder33,folder34,folder35
TITLE ""
FILE "159 159_—á•¶UNIT7_SET1.mp3" MP3
  TRACK 01 AUDIO
    TITLE "22:cjc123_4291"
    INDEX 01 00:00:00
  TRACK 02 AUDIO
    TITLE "0:"
    INDEX 01 00:02:38
  TRACK 03 AUDIO
    TITLE "19:cjc123_4292"
    INDEX 01 00:03:31
  TRACK 04 AUDIO
    TITLE "0:"
    INDEX 01 00:07:23
  TRACK 05 AUDIO
    TITLE "20:cjc123_4293"
    INDEX 01 00:07:49
  TRACK 06 AUDIO
    TITLE "0:"
    INDEX 01 00:12:52
  TRACK 07 AUDIO
    TITLE "21:cjc123_4294"
    INDEX 01 00:13:06
  TRACK 08 AUDIO
    TITLE "0:"
    INDEX 01 00:16:73
  TRACK 09 AUDIO
    TITLE "19:cjc123_4295"
    INDEX 01 00:17:49
  TRACK 10 AUDIO
    TITLE "0:"
    INDEX 01 00:23:40
  TRACK 11 AUDIO
    TITLE "20:cjc123_4296"
    INDEX 01 00:24:12
  TRACK 12 AUDIO
    TITLE "0:"
    INDEX 01 00:29:25
  TRACK 13 AUDIO
    TITLE "21:cjc123_4297"
    INDEX 01 00:29:56
  TRACK 14 AUDIO
    TITLE "0:"
    INDEX 01 00:35:49
  TRACK 15 AUDIO
    TITLE "19:cjc123_4298"
    INDEX 01 00:36:33
  TRACK 16 AUDIO
    TITLE "0:"
    INDEX 01 00:41:34
  TRACK 17 AUDIO
    TITLE "20:cjc123_4299"
    INDEX 01 00:41:51
  TRACK 18 AUDIO
    TITLE "0:"
    INDEX 01 00:45:43
  TRACK 19 AUDIO
    TITLE "21:cjc123_4300"
    INDEX 01 00:46:02
  TRACK 20 AUDIO
    TITLE "0:"
    INDEX 01 00:51:01
  TRACK 21 AUDIO
    TITLE "19:cjc123_4301"
    INDEX 01 00:51:50
  TRACK 22 AUDIO
    TITLE "0:"
    INDEX 01 00:55:40
  TRACK 23 AUDIO
    TITLE "20:cjc123_4302"
    INDEX 01 00:55:71
  TRACK 24 AUDIO
    TITLE "0:"
    INDEX 01 00:58:52
  TRACK 25 AUDIO
    TITLE "21:cjc123_4303"
    INDEX 01 00:59:08
  TRACK 26 AUDIO
    TITLE "0:"
    INDEX 01 01:03:02
  TRACK 27 AUDIO
    TITLE "19:cjc123_4304"
    INDEX 01 01:03:47
  TRACK 28 AUDIO
    TITLE "0:"
    INDEX 01 01:08:05
  TRACK 29 AUDIO
    TITLE "20:cjc123_4305"
    INDEX 01 01:08:36
  TRACK 30 AUDIO
    TITLE "0:"
    INDEX 01 01:12:68
  TRACK 31 AUDIO
    TITLE "21:cjc123_4306"
    INDEX 01 01:13:18
  TRACK 32 AUDIO
    TITLE "0:"
    INDEX 01 01:17:49
  TRACK 33 AUDIO
    TITLE "19:cjc123_4307"
    INDEX 01 01:18:21
  TRACK 34 AUDIO
    TITLE "0:"
    INDEX 01 01:23:05
  TRACK 35 AUDIO
    TITLE "20:cjc123_4308"
    INDEX 01 01:23:34
  TRACK 36 AUDIO
    TITLE "0:"
    INDEX 01 01:27:40
  TRACK 37 AUDIO
    TITLE "21:cjc123_4309"
    INDEX 01 01:27:69
  TRACK 38 AUDIO
    TITLE "0:"
    INDEX 01 01:32:53
  TRACK 39 AUDIO
    TITLE "19:cjc123_4310"
    INDEX 01 01:33:27
  TRACK 40 AUDIO
    TITLE "0:"
    INDEX 01 01:38:04
  TRACK 41 AUDIO
    TITLE "20:cjc123_4311"
    INDEX 01 01:38:38
  TRACK 42 AUDIO
    TITLE "0:"
    INDEX 01 01:44:07
  TRACK 43 AUDIO
    TITLE "21:cjc123_4312"
    INDEX 01 01:44:34
  TRACK 44 AUDIO
    TITLE "0:"
    INDEX 01 01:49:14
  TRACK 45 AUDIO
    TITLE "19:cjc123_4313"
    INDEX 01 01:49:71
  TRACK 46 AUDIO
    TITLE "0:"
    INDEX 01 01:54:01
  TRACK 47 AUDIO
    TITLE "20:cjc123_4314"
    INDEX 01 01:54:35
  TRACK 48 AUDIO
    TITLE "0:"
    INDEX 01 01:58:64
  TRACK 49 AUDIO
    TITLE "21:cjc123_4315"
    INDEX 01 01:59:18
  TRACK 50 AUDIO
    TITLE "0:"
    INDEX 01 02:03:22
  TRACK 51 AUDIO
    TITLE "19:cjc123_4316"
    INDEX 01 02:03:67
  TRACK 52 AUDIO
    TITLE "0:"
    INDEX 01 02:08:13
  TRACK 53 AUDIO
    TITLE "20:cjc123_4317"
    INDEX 01 02:08:41
  TRACK 54 AUDIO
    TITLE "0:"
    INDEX 01 02:13:01
  TRACK 55 AUDIO
    TITLE "21:cjc123_4318"
    INDEX 01 02:13:26
  TRACK 56 AUDIO
    TITLE "0:"
    INDEX 01 02:17:47
  TRACK 57 AUDIO
    TITLE "19:cjc123_4319"
    INDEX 01 02:18:18
  TRACK 58 AUDIO
    TITLE "0:"
    INDEX 01 02:22:64
  TRACK 59 AUDIO
    TITLE "20:cjc123_4320"
    INDEX 01 02:23:21
  TRACK 60 AUDIO
    TITLE "0:"
    INDEX 01 02:28:55
  TRACK 61 AUDIO
    TITLE "21:cjc123_4321"
    INDEX 01 02:29:11
  TRACK 62 AUDIO
    TITLE "0:"
    INDEX 01 02:33:58
  TRACK 63 AUDIO
    TITLE "19:cjc123_4322"
    INDEX 01 02:34:30
  TRACK 64 AUDIO
    TITLE "0:"
    INDEX 01 02:39:49
  TRACK 65 AUDIO
    TITLE "20:cjc123_4323"
    INDEX 01 02:40:19
  TRACK 66 AUDIO
    TITLE "0:"
    INDEX 01 02:45:54
  TRACK 67 AUDIO
    TITLE "21:cjc123_4324"
    INDEX 01 02:46:12
  TRACK 68 AUDIO
    TITLE "0:"
    INDEX 01 02:51:29
  TRACK 69 AUDIO
    TITLE "19:cjc123_4325"
    INDEX 01 02:52:14
  TRACK 70 AUDIO
    TITLE "0:"
    INDEX 01 02:57:49
  TRACK 71 AUDIO
    TITLE "20:cjc123_4326"
    INDEX 01 02:58:09
  TRACK 72 AUDIO
    TITLE "0:"
    INDEX 01 03:03:28
  TRACK 73 AUDIO
    TITLE "21:cjc123_4327"
    INDEX 01 03:03:57
  TRACK 74 AUDIO
    TITLE "0:"
    INDEX 01 03:09:19
  TRACK 75 AUDIO
    TITLE "19:cjc123_4328"
    INDEX 01 03:09:64
  TRACK 76 AUDIO
    TITLE "0:"
    INDEX 01 03:13:71
  TRACK 77 AUDIO
    TITLE "20:cjc123_4329"
    INDEX 01 03:14:24
  TRACK 78 AUDIO
    TITLE "0:"
    INDEX 01 03:17:73
  TRACK 79 AUDIO
    TITLE "21:cjc123_4330"
    INDEX 01 03:18:30
  TRACK 80 AUDIO
    TITLE "0:"
    INDEX 01 03:22:29
  TRACK 81 AUDIO
    TITLE "19:cjc123_4331"
    INDEX 01 03:23:01
  TRACK 82 AUDIO
    TITLE "0:"
    INDEX 01 03:28:22
  TRACK 83 AUDIO
    TITLE "20:cjc123_4332"
    INDEX 01 03:28:51
  TRACK 84 AUDIO
    TITLE "0:"
    INDEX 01 03:33:70
  TRACK 85 AUDIO
    TITLE "21:cjc123_4333"
    INDEX 01 03:34:25
  TRACK 86 AUDIO
    TITLE "0:"
    INDEX 01 03:39:43
  TRACK 87 AUDIO
    TITLE "19:cjc123_4334"
    INDEX 01 03:40:51
  TRACK 88 AUDIO
    TITLE "0:"
    INDEX 01 03:46:38
  TRACK 89 AUDIO
    TITLE "20:cjc123_4335"
    INDEX 01 03:46:69
  TRACK 90 AUDIO
    TITLE "0:"
    INDEX 01 03:51:52
  TRACK 91 AUDIO
    TITLE "21:cjc123_4336"
    INDEX 01 03:52:05
  TRACK 92 AUDIO
    TITLE "0:"
    INDEX 01 03:57:71
